# xmcd CD database file
#
# Track frame offsets:
#	150
#	17623
#	39496
#	60223
#	79625
#	94886
#	105258
#	118521
#	131680
#	154673
#	169892
#	182759
#	202255
#	231485
#	250066
#	316746
#	347360
#
# Disc length: 4832 seconds
#
# Revision: 3
# Processed by: cddbd v1.4PL0 Copyright (c) Steve Scherf et al.
# Submitted via: CDex 1.50beta9
#
DISCID=d612de11
DTITLE=Georg Danzer - Live Tournee 79
DYEAR=1980
DGENRE=Rock
TTITLE0=Lass mi amoi no d'Sun aufgehn segn
TTITLE1=Notausgang
TTITLE2=Zehn kleine Fixer
TTITLE3=Feine Leute
TTITLE4=Der Herr Politiker
TTITLE5=Die Freiheit
TTITLE6=Wir werden alle überwacht
TTITLE7=Schnellreinigung
TTITLE8=Liebe - Liebe
TTITLE9=Sex Appeal
TTITLE10=Ruaf mi ned an
TTITLE11=Wiener Standpunkt
TTITLE12=Wienerische Trilogie
TTITLE13=haschisch
TTITLE14=Hey Baby - ein wenig lLebe
TTITLE15=Morgenrot
TTITLE16=Heute Nacht machen wir es gut
EXTD=YEAR: 1980
EXTT0=
EXTT1=
EXTT2=
EXTT3=
EXTT4=
EXTT5=
EXTT6=
EXTT7=
EXTT8=
EXTT9=
EXTT10=
EXTT11=
EXTT12=
EXTT13=
EXTT14=
EXTT15=
EXTT16=
PLAYORDER=
